<svg width="185" height="64" viewBox="0 0 185 64" fill="none" xmlns="http://www.w3.org/2000/svg">
<rect width="185" height="64" rx="4" fill="#FF7800"/>
<path d="M44.3622 32.2212C44.3622 33.4751 44.1454 34.5767 43.7118 35.5259C43.2782 36.4692 42.6571 37.1958 41.8485 37.7056C41.0458 38.2095 40.12 38.4614 39.0712 38.4614C38.0341 38.4614 37.1083 38.2095 36.2939 37.7056C35.4853 37.1958 34.8583 36.4722 34.413 35.5347C33.9735 34.5972 33.7509 33.5161 33.745 32.2915V31.5708C33.745 30.3228 33.9648 29.2212 34.4042 28.2661C34.8495 27.311 35.4735 26.5815 36.2763 26.0776C37.0849 25.5679 38.0107 25.313 39.0536 25.313C40.0966 25.313 41.0194 25.5649 41.8222 26.0688C42.6308 26.5669 43.2548 27.2876 43.6942 28.231C44.1337 29.1685 44.3564 30.2612 44.3622 31.5093V32.2212ZM42.1386 31.5532C42.1386 30.1353 41.8691 29.0483 41.33 28.2925C40.7968 27.5366 40.038 27.1587 39.0536 27.1587C38.0927 27.1587 37.3398 27.5366 36.7948 28.2925C36.2558 29.0425 35.9804 30.106 35.9687 31.4829V32.2212C35.9687 33.6274 36.2411 34.7144 36.786 35.4819C37.3368 36.2495 38.0985 36.6333 39.0712 36.6333C40.0556 36.6333 40.8114 36.2583 41.3388 35.5083C41.872 34.7583 42.1386 33.6626 42.1386 32.2212V31.5532ZM53.8544 30.4722H50.7694V38.2856H48.6337V30.4722H45.5839V28.7759H53.8544V30.4722ZM58.662 34.5239H57.581V38.2856H55.4452V28.7759H57.581V32.5728H58.5214L61.1493 28.7759H63.786L60.3495 33.3286L64.0761 38.2856H61.2987L58.662 34.5239ZM73.331 28.7759V38.2856H71.1952V30.4985H68.5058L68.33 33.812C68.2187 35.4058 67.911 36.5513 67.4071 37.2485C66.9091 37.9399 66.1444 38.2856 65.1132 38.2856H64.454L64.4452 36.5103L64.8847 36.4663C65.3534 36.4019 65.6933 36.1177 65.9042 35.6138C66.121 35.104 66.2587 34.1782 66.3173 32.8364L66.4931 28.7759H73.331ZM81.54 28.7759H83.6669V38.2856H81.54V31.9399L77.8134 38.2856H75.6864V28.7759H77.8134V35.1216L81.54 28.7759ZM89.3183 34.5239H88.2372V38.2856H86.1015V28.7759H88.2372V32.5728H89.1776L91.8056 28.7759H94.4423L91.0058 33.3286L94.7323 38.2856H91.955L89.3183 34.5239ZM103.961 38.2856H101.825V34.4448H98.1249V38.2856H95.9892V28.7759H98.1249V32.7397H101.825V28.7759H103.961V38.2856ZM109.568 35.2271L111.502 28.7759H113.778L109.999 39.7271C109.419 41.3267 108.434 42.1265 107.046 42.1265C106.735 42.1265 106.392 42.0737 106.017 41.9683V40.3159L106.422 40.3423C106.961 40.3423 107.365 40.2427 107.635 40.0435C107.91 39.8501 108.127 39.522 108.285 39.0591L108.593 38.2417L105.253 28.7759H107.556L109.568 35.2271ZM122.497 30.4722H119.412V38.2856H117.276V30.4722H114.226V28.7759H122.497V30.4722ZM126.224 31.7993H128.315C129.095 31.7993 129.774 31.9341 130.354 32.2036C130.934 32.4731 131.374 32.8511 131.673 33.3374C131.977 33.8237 132.13 34.3892 132.13 35.0337C132.13 36.0122 131.784 36.7974 131.093 37.3892C130.401 37.981 129.481 38.2798 128.333 38.2856H124.088V28.7759H126.224V31.7993ZM126.224 33.5132V36.5806H128.307C128.828 36.5806 129.238 36.4517 129.537 36.1938C129.842 35.9302 129.994 35.5581 129.994 35.0776C129.994 34.5972 129.845 34.2192 129.546 33.9438C129.253 33.6626 128.854 33.519 128.35 33.5132H126.224ZM137.746 36.7563C138.279 36.7563 138.722 36.6011 139.073 36.2905C139.425 35.98 139.612 35.5962 139.636 35.1392H141.648C141.625 35.731 141.44 36.2847 141.095 36.8003C140.749 37.3101 140.28 37.7144 139.688 38.0132C139.097 38.312 138.458 38.4614 137.772 38.4614C136.442 38.4614 135.388 38.0308 134.608 37.1694C133.829 36.3081 133.439 35.1187 133.439 33.6011V33.3813C133.439 31.9341 133.826 30.7769 134.6 29.9097C135.373 29.0366 136.428 28.6001 137.764 28.6001C138.894 28.6001 139.814 28.9312 140.523 29.5933C141.238 30.2495 141.613 31.1138 141.648 32.186H139.636C139.612 31.6411 139.425 31.1929 139.073 30.8413C138.727 30.4897 138.285 30.314 137.746 30.314C137.055 30.314 136.521 30.5659 136.146 31.0698C135.771 31.5679 135.581 32.3267 135.575 33.3462V33.689C135.575 34.7202 135.76 35.4907 136.129 36.0005C136.504 36.5044 137.043 36.7563 137.746 36.7563ZM150.877 28.7759V38.2856H148.75V34.7964H146.755L144.725 38.2856H142.51L144.751 34.4448C144.165 34.1987 143.714 33.8472 143.397 33.3901C143.087 32.9331 142.932 32.4087 142.932 31.8169C142.932 30.9321 143.271 30.2085 143.951 29.646C144.637 29.0776 145.559 28.7876 146.72 28.7759H150.877ZM145.067 31.8696C145.067 32.2681 145.214 32.5933 145.507 32.8452C145.806 33.0913 146.186 33.2144 146.649 33.2144H148.75V30.4722H146.781C146.26 30.4722 145.844 30.604 145.533 30.8677C145.223 31.1313 145.067 31.4653 145.067 31.8696Z" fill="white"/>
</svg>
