<svg width="209" height="50" viewBox="0 0 209 50" fill="none" xmlns="http://www.w3.org/2000/svg">
<rect width="208.106" height="50.1561" transform="matrix(0.999999 -0.00122668 0.00122303 0.999999 0.682617 -0.2854)" fill="#FF7800"/>
<path d="M55.4705 20.9384C55.4402 20.582 55.0131 20.3114 54.5165 20.3339L45.2547 20.7543C44.758 20.7769 44.38 21.0841 44.4103 21.4405C44.4406 21.797 44.8677 22.0676 45.3644 22.0451L54.6262 21.6246C55.1228 21.6021 55.5008 21.2949 55.4705 20.9384Z" fill="white"/>
<path d="M45.2544 24.1779C44.7601 24.2026 44.3838 24.5403 44.4139 24.9322C44.444 25.3241 44.8691 25.6218 45.3634 25.5971L50.9621 25.3173C51.4564 25.2926 51.8326 24.9549 51.8025 24.563C51.7724 24.1711 51.3473 23.8735 50.853 23.8982L45.2544 24.1779Z" fill="white"/>
<path d="M48.1194 32.1114L45.2915 32.2789C44.359 32.3341 43.555 31.6163 43.4993 30.6787L42.61 15.7154C42.5543 14.7778 43.2676 13.9701 44.2001 13.9149L54.5956 13.2992C55.5281 13.244 56.332 13.9618 56.3878 14.8994L56.6985 20.1281C56.7264 20.5976 57.1276 20.9558 57.5946 20.9282C58.0616 20.9005 58.4175 20.4975 58.3896 20.0279L58.0789 14.7992C57.9674 12.9241 56.3595 11.4884 54.4946 11.5988L44.099 12.2145C42.2341 12.3249 40.8075 13.9404 40.9189 15.8155L41.8082 30.7789C41.9197 32.654 43.5276 34.0897 45.3925 33.9793L48.2204 33.8118C48.6874 33.7842 49.0434 33.3811 49.0154 32.9115C48.9875 32.442 48.5864 32.0838 48.1194 32.1114Z" fill="white"/>
<path d="M60.2492 24.2676C59.1854 23.3446 57.5526 23.4404 56.6101 24.4804L52.1825 29.3547C52.0884 29.4582 52.022 29.5828 51.9891 29.7175L51.1663 33.0816C51.0933 33.3799 51.1921 33.6933 51.4241 33.8996C51.5978 34.0541 51.8257 34.1302 52.0537 34.1168C52.13 34.1123 52.2065 34.0978 52.2808 34.0728L55.6859 32.9312C55.826 32.8843 55.9514 32.8027 56.0497 32.6943L60.468 27.8287C61.4111 26.788 61.313 25.1905 60.2492 24.2676ZM54.9147 31.412L53.2017 31.9864L53.6106 30.3143L56.5981 27.0254L57.8845 28.1415L54.9147 31.412ZM59.1824 26.7123L59.0261 26.8843L57.7399 25.7685L57.8956 25.597C58.21 25.2501 58.7543 25.2182 59.1089 25.5258C59.4635 25.8335 59.4962 26.3659 59.1824 26.7123Z" fill="white"/>
<path d="M54.5105 16.778L45.2488 17.1984C44.7522 17.221 44.3742 17.5282 44.4045 17.8846C44.4348 18.2411 44.8619 18.5117 45.3585 18.4892L54.6202 18.0687C55.1168 18.0462 55.4949 17.739 55.4646 17.3825C55.4343 17.0261 55.0071 16.7554 54.5105 16.778Z" fill="white"/>
<path d="M76.6937 19.0493C76.693 18.4751 76.4756 18.0184 76.0416 17.679C75.6076 17.3397 75.0185 17.1705 74.2744 17.1714C73.6357 17.1722 73.1027 17.3428 72.6754 17.6832C72.2481 18.0177 72.0348 18.4515 72.0354 18.9847L69.8206 18.9874C69.8197 18.2902 70.0123 17.6688 70.3984 17.1235C70.7844 16.5781 71.32 16.1555 72.0052 15.8559C72.6904 15.5503 73.4461 15.3971 74.2722 15.396C75.7371 15.3943 76.8742 15.7122 77.6835 16.3499C78.4988 16.9876 78.9071 17.8806 78.9085 19.029C78.9092 19.6091 78.7341 20.1425 78.3831 20.6293C78.0322 21.1161 77.5404 21.5004 76.908 21.7825C77.6231 22.0277 78.1685 22.402 78.5441 22.9055C78.9256 23.403 79.1168 24.0239 79.1177 24.768C79.1191 25.9165 78.6808 26.8311 77.8027 27.5119C76.9246 28.1868 75.7531 28.5251 74.2883 28.5269C73.386 28.528 72.5684 28.3679 71.8356 28.0465C71.1086 27.7251 70.5602 27.2863 70.1904 26.7302C69.8264 26.174 69.644 25.5355 69.6431 24.8148L71.858 24.8121C71.8586 25.3629 72.0877 25.8284 72.5452 26.2087C73.0027 26.5832 73.583 26.7699 74.2861 26.7691C75.0713 26.7681 75.701 26.5828 76.1751 26.2131C76.6551 25.8433 76.8948 25.3626 76.8941 24.7708C76.8932 24.0501 76.6816 23.5288 76.2593 23.2071C75.8429 22.8795 75.2304 22.7162 74.4218 22.7172L72.9189 22.719L72.9167 20.9612L74.3406 20.9594C75.9109 20.9575 76.6952 20.3208 76.6937 19.0493ZM86.6631 28.3447C86.5691 28.1632 86.4867 27.8674 86.4159 27.4574C85.7371 28.1672 84.9055 28.5227 83.9211 28.5239C82.966 28.5251 82.1864 28.2536 81.5822 27.7094C80.978 27.1652 80.6755 26.4917 80.6745 25.689C80.6732 24.6753 81.0473 23.8985 81.7966 23.3585C82.5518 22.8127 83.6296 22.5389 85.03 22.5372L86.3396 22.5356L86.3388 21.9115C86.3382 21.4194 86.2 21.027 85.9243 20.7343C85.6485 20.4358 85.2294 20.2869 84.6669 20.2876C84.1806 20.2882 83.7823 20.4117 83.472 20.6582C83.1618 20.8988 83.0069 21.2066 83.0073 21.5816L80.8716 21.5843C80.871 21.0628 81.0432 20.5762 81.3884 20.1246C81.7335 19.6672 82.2018 19.3092 82.7933 19.0507C83.3906 18.7921 84.0555 18.6624 84.7879 18.6615C85.9012 18.6601 86.7893 18.9403 87.4521 19.502C88.1149 20.0578 88.4557 20.8425 88.4745 21.8562L88.4797 26.1453C88.4808 27.0007 88.6017 27.6832 88.8426 28.1927L88.8428 28.3421L86.6631 28.3447ZM84.3145 26.8095C84.7364 26.809 85.1318 26.706 85.5007 26.5005C85.8754 26.2949 86.1563 26.0192 86.3434 25.6733L86.3412 23.8803L85.1898 23.8817C84.3988 23.8827 83.8043 24.0211 83.4062 24.297C83.0081 24.5729 82.8093 24.9627 82.81 25.4667C82.8105 25.8768 82.9456 26.2048 83.2155 26.4505C83.4911 26.6904 83.8575 26.8101 84.3145 26.8095ZM98.7832 28.3299L96.6475 28.3325L96.6379 20.5454L92.9289 20.55L92.9385 28.3371L90.8027 28.3397L90.7911 18.8299L98.7715 18.8201L98.7832 28.3299ZM106.981 18.8101L109.107 18.8075L109.119 28.3172L106.992 28.3198L106.984 21.9741L103.266 28.3244L101.139 28.327L101.127 18.8173L103.254 18.8147L103.262 25.1604L106.981 18.8101ZM115.296 26.7804C115.829 26.7797 116.271 26.6239 116.623 26.3129C116.974 26.002 117.161 25.6179 117.184 25.1609L119.196 25.1584C119.174 25.7502 118.99 26.3042 118.645 26.8202C118.3 27.3304 117.831 27.7353 117.24 28.0348C116.648 28.3344 116.01 28.4846 115.324 28.4854C113.994 28.4871 112.939 28.0577 112.159 27.1973C111.378 26.3369 110.987 25.148 110.985 23.6304L110.985 23.4107C110.983 21.9634 111.369 20.8057 112.141 19.9376C112.913 19.0636 113.968 18.6257 115.304 18.6241C116.434 18.6227 117.355 18.9527 118.065 19.6139C118.78 20.2693 119.156 21.1331 119.193 22.2053L117.18 22.2078C117.156 21.6629 116.968 21.2148 116.616 20.8637C116.27 20.5126 115.827 20.3373 115.288 20.338C114.597 20.3388 114.064 20.5915 113.689 21.0958C113.315 21.5943 113.125 22.3533 113.121 23.3729L113.121 23.7157C113.123 24.7469 113.308 25.5172 113.678 26.0265C114.053 26.5299 114.593 26.7812 115.296 26.7804ZM126.495 28.296C126.401 28.1144 126.319 27.8186 126.248 27.4086C125.569 28.1184 124.737 28.4739 123.753 28.4751C122.798 28.4763 122.018 28.2048 121.414 27.6606C120.81 27.1164 120.507 26.4429 120.506 25.6402C120.505 24.6265 120.879 23.8497 121.629 23.3097C122.384 22.7639 123.462 22.4901 124.862 22.4884L126.172 22.4868L126.171 21.8628C126.17 21.3706 126.032 20.9782 125.756 20.6855C125.481 20.387 125.061 20.2381 124.499 20.2388C124.013 20.2394 123.614 20.363 123.304 20.6094C122.994 20.85 122.839 21.1579 122.839 21.5329L120.704 21.5355C120.703 21.014 120.875 20.5274 121.22 20.0759C121.566 19.6184 122.034 19.2604 122.625 19.0019C123.223 18.7433 123.888 18.6136 124.62 18.6127C125.733 18.6113 126.621 18.8915 127.284 19.4532C127.947 20.009 128.288 20.7938 128.306 21.8074L128.312 26.0965C128.313 26.9519 128.434 27.6344 128.675 28.1439L128.675 28.2933L126.495 28.296ZM124.147 26.7607C124.568 26.7602 124.964 26.6572 125.333 26.4517C125.707 26.2461 125.988 25.9704 126.175 25.6245L126.173 23.8315L125.022 23.8329C124.231 23.8339 123.636 23.9723 123.238 24.2482C122.84 24.5241 122.641 24.914 122.642 25.4179C122.642 25.828 122.778 26.156 123.047 26.4017C123.323 26.6416 123.689 26.7613 124.147 26.7607ZM137.885 20.4685L134.8 20.4723L134.81 28.2858L132.674 28.2884L132.664 20.4749L129.614 20.4787L129.612 18.7824L137.883 18.7722L137.885 20.4685ZM141.613 21.7911L143.705 21.7885C144.484 21.7876 145.164 21.9215 145.744 22.1903C146.325 22.4592 146.765 22.8366 147.064 23.3225C147.369 23.8085 147.523 24.3737 147.523 25.0182C147.525 25.9968 147.18 26.7823 146.489 27.375C145.798 27.9676 144.879 28.2676 143.73 28.2748L139.485 28.28L139.474 18.7703L141.609 18.7677L141.613 21.7911ZM141.615 23.505L141.619 26.5724L143.702 26.5698C144.223 26.5692 144.633 26.4398 144.932 26.1816C145.236 25.9175 145.388 25.5453 145.388 25.0648C145.387 24.5843 145.237 24.2066 144.938 23.9316C144.645 23.6507 144.246 23.5076 143.742 23.5024L141.615 23.505ZM153.142 26.734C153.675 26.7334 154.117 26.5776 154.468 26.2666C154.819 25.9556 155.006 25.5716 155.029 25.1145L157.042 25.1121C157.019 25.7039 156.835 26.2578 156.49 26.7739C156.145 27.2841 155.677 27.6889 155.086 27.9885C154.494 28.288 153.856 28.4382 153.17 28.4391C151.84 28.4407 150.785 28.0113 150.004 27.1509C149.224 26.2906 148.833 25.1016 148.831 23.584L148.831 23.3643C148.829 21.917 149.214 20.7593 149.987 19.8912C150.759 19.0172 151.813 18.5794 153.149 18.5778C154.28 18.5764 155.2 18.9063 155.91 19.5675C156.626 20.2229 157.002 21.0867 157.038 22.1589L155.026 22.1614C155.002 21.6165 154.814 21.1685 154.462 20.8174C154.115 20.4662 153.673 20.291 153.134 20.2916C152.442 20.2925 151.909 20.5451 151.535 21.0495C151.161 21.548 150.971 22.307 150.967 23.3265L150.967 23.6693C150.968 24.7005 151.154 25.4708 151.524 25.9801C151.899 26.4836 152.439 26.7349 153.142 26.734ZM166.263 18.7375L166.274 28.2472L164.147 28.2498L164.143 24.7606L162.148 24.763L160.122 28.2548L157.907 28.2575L160.144 24.4139C159.557 24.1685 159.106 23.8175 158.789 23.3609C158.478 22.9042 158.322 22.38 158.321 21.7882C158.32 20.9035 158.659 20.1794 159.338 19.6161C160.023 19.0469 160.945 18.7557 162.105 18.7426L166.263 18.7375ZM160.457 21.8383C160.457 22.2368 160.604 22.5618 160.898 22.8134C161.197 23.0591 161.578 23.1817 162.041 23.1811L164.141 23.1786L164.138 20.4364L162.169 20.4388C161.648 20.4394 161.232 20.5718 160.922 20.8358C160.611 21.0999 160.456 21.434 160.457 21.8383Z" fill="white"/>
</svg>
